# xmcd
#
# Track frame offsets:
#	150
#	13777
#	30180
#	44942
#	59478
#	72856
#	90939
#	106615
#	121496
#	135427
#	148668
#	165971
#	177881
#	190939
#	208058
#	223995
#	237712
#	253377
#	275096
#	295088
#
# Disc length: 4156 seconds
#
# Revision: 3
# Processed by: cddbd v1.5.1PL2 Copyright (c) Steve Scherf et al.
# Submitted via: audiograbber 1.83.01
#
DISCID=33103a14
DTITLE=Various Artist - CDX 391 
DYEAR=2006
DGENRE=Country
TTITLE0=Emerson Drive - A Good Man
TTITLE1=Ryan Shupe and The Rubberband - Banjo Boy
TTITLE2=Danielle Peck - Findin' A Good Man
TTITLE3=Danielle Peck - Findin' A Good Man (Radio Edit)
TTITLE4=Carolina Rain - Get Outta My Way
TTITLE5=Diamond Rio - God Only Cries
TTITLE6=Hank III - Low Down
TTITLE7=Hank Williams Jr., Big and Rich, Gretchen Wilson, Van Zant - That's How T
TTITLE7=hey Do It In Dixie
TTITLE8=Scotty Emerick - What's Up With That
TTITLE9=Jake Owen - Yee Haw
TTITLE10=Craig Hand - Direct Connect
TTITLE11=Pinmonkey - That Train Don't Run
TTITLE12=April Taylor - All My Love
TTITLE13=Tim Aaron - All I Wanna Do
TTITLE14=Jessica Dean - Almost Doesn't Count
TTITLE15=Eric Dodge - Anything For You
TTITLE16=Rick Monroe - I Remember The Music
TTITLE17=Joey Holiday - Iron Pony Express
TTITLE18=Mark Leland - Missing Pieces
TTITLE19=Delena Stevens - Welcome To My World
EXTD=
EXTT0=
EXTT1=
EXTT2=
EXTT3=
EXTT4=
EXTT5=
EXTT6=
EXTT7=
EXTT8=
EXTT9=
EXTT10=
EXTT11=
EXTT12=
EXTT13=
EXTT14=
EXTT15=
EXTT16=
EXTT17=
EXTT18=
EXTT19=
PLAYORDER=
